<!DOCTYPE svg PUBLIC "-//W3C//DTD SVG 20010904//EN" "http://www.w3.org/TR/2001/REC-SVG-20010904/DTD/svg10.dtd">
<svg version="1.0" xmlns="http://www.w3.org/2000/svg" width="108px" height="104px" viewBox="0 0 1080 1040" preserveAspectRatio="xMidYMid meet">
<g id="layer1" fill="#b1b1b1" stroke="none">
 <path d="M458 1013 c6 -2 18 -2 25 0 6 3 1 5 -13 5 -14 0 -19 -2 -12 -5z"/>
 <path d="M628 1013 c23 -5 23 -5 5 -26 l-18 -22 22 19 c26 22 21 37 -10 35 -21 -2 -21 -2 1 -6z"/>
 <path d="M430 1006 c0 -2 8 -10 18 -17 15 -13 16 -12 3 4 -13 16 -21 21 -21 13z"/>
 <path d="M472 940 c0 -19 2 -27 5 -17 2 9 2 25 0 35 -3 9 -5 1 -5 -18z"/>
 <path d="M201 907 c-14 -18 -4 -27 29 -27 14 0 32 -6 40 -12 12 -11 12 -10 1 5 -8 9 -27 17 -43 17 -26 0 -29 2 -18 15 7 8 10 15 7 15 -2 0 -10 -6 -16 -13z"/>
 <path d="M461 874 c0 -11 3 -14 6 -6 3 7 2 16 -1 19 -3 4 -6 -2 -5 -13z"/>
 <path d="M853 883 c9 -2 23 -2 30 0 6 3 -1 5 -18 5 -16 0 -22 -2 -12 -5z"/>
 <path d="M632 810 c0 -19 2 -27 5 -17 2 9 2 25 0 35 -3 9 -5 1 -5 -18z"/>
 <path d="M376 767 c3 -10 9 -15 12 -12 3 3 0 11 -7 18 -10 9 -11 8 -5 -6z"/>
 <path d="M521 744 c0 -11 3 -14 6 -6 3 7 2 16 -1 19 -3 4 -6 -2 -5 -13z"/>
 <path d="M623 710 c0 -30 2 -43 4 -27 2 15 2 39 0 55 -2 15 -4 2 -4 -28z"/>
 <path d="M561 734 c0 -11 3 -14 6 -6 3 7 2 16 -1 19 -3 4 -6 -2 -5 -13z"/>
 <path d="M744 698 l-19 -23 23 19 c21 18 27 26 19 26 -2 0 -12 -10 -23 -22z"/>
 <path d="M340 696 c0 -2 8 -10 18 -17 15 -13 16 -12 3 4 -13 16 -21 21 -21 13z"/>
 <path d="M659 683 c-13 -16 -12 -17 4 -4 9 7 17 15 17 17 0 8 -8 3 -21 -13z"/>
 <path d="M433 674 c19 -22 22 -76 8 -136 -6 -27 -5 -42 5 -55 12 -16 13 -7 14 62 0 44 3 91 7 105 3 14 2 22 -2 17 -5 -4 -18 1 -29 10 -21 18 -21 18 -3 -3z"/>
 <path d="M551 674 c0 -11 3 -14 6 -6 3 7 2 16 -1 19 -3 4 -6 -2 -5 -13z"/>
 <path d="M630 614 c0 -21 5 -46 11 -54 7 -11 8 -1 3 35 -8 62 -14 70 -14 19z"/>
 <path d="M636 484 c-9 -24 -2 -26 12 -4 7 11 8 20 3 20 -5 0 -12 -7 -15 -16z"/>
 <path d="M462 430 c0 -14 2 -19 5 -12 2 6 2 18 0 25 -3 6 -5 1 -5 -13z"/>
 <path d="M458 347 c-3 -19 -2 -25 4 -19 6 6 8 18 6 28 -3 14 -5 12 -10 -9z"/>
 <path d="M426 243 c-4 -11 -30 -27 -71 -42 -37 -13 -64 -25 -61 -28 3 -3 34 5 70 18 45 16 66 30 70 43 7 26 0 33 -8 9z"/>
 <path d="M238 243 c7 -3 16 -2 19 1 4 3 -2 6 -13 5 -11 0 -14 -3 -6 -6z"/>
 <path d="M308 243 c7 -3 16 -2 19 1 4 3 -2 6 -13 5 -11 0 -14 -3 -6 -6z"/>
 <path d="M358 243 c12 -2 30 -2 40 0 9 3 -1 5 -23 4 -22 0 -30 -2 -17 -4z"/>
 <path d="M698 243 c12 -2 30 -2 40 0 9 3 -1 5 -23 4 -22 0 -30 -2 -17 -4z"/>
 <path d="M838 243 c7 -3 16 -2 19 1 4 3 -2 6 -13 5 -11 0 -14 -3 -6 -6z"/>
 <path d="M662 230 c4 -14 127 -64 136 -55 3 2 -1 7 -9 9 -60 19 -115 42 -122 50 -5 7 -7 5 -5 -4z"/>
 <path d="M80 210 c-9 -6 -10 -10 -3 -10 6 0 15 5 18 10 8 12 4 12 -15 0z"/>
 <path d="M218 183 c6 -2 18 -2 25 0 6 3 1 5 -13 5 -14 0 -19 -2 -12 -5z"/>
 <path d="M848 183 c6 -2 18 -2 25 0 6 3 1 5 -13 5 -14 0 -19 -2 -12 -5z"/>
 <path d="M519 163 c-13 -15 -12 -15 9 -4 18 10 27 10 38 0 8 -7 14 -7 14 -1 0 9 -22 22 -40 22 -4 0 -14 -7 -21 -17z"/>
 <path d="M596 162 c-2 -4 4 -8 14 -8 10 0 16 4 14 8 -3 4 -9 8 -14 8 -5 0 -11 -4 -14 -8z"/>
 <path d="M811 166 c2 -2 15 -9 29 -15 24 -11 24 -11 6 3 -16 13 -49 24 -35 12z"/>
 <path d="M907 109 c7 -7 15 -10 18 -7 3 3 -2 9 -12 12 -14 6 -15 5 -6 -5z"/>
 <path d="M584 85 c-3 -8 -4 -20 -2 -27 3 -7 7 -1 10 15 6 29 1 36 -8 12z"/>
 <path d="M967 87 c11 -17 10 -31 -2 -40 -6 -5 -4 -7 5 -4 8 2 14 10 13 16 -2 6 2 11 7 11 18 0 10 18 -10 23 -14 3 -18 1 -13 -6z"/>
 <path d="M103 68 c2 -12 10 -24 18 -26 9 -2 10 -1 3 5 -6 4 -10 16 -8 26 1 9 -2 17 -7 17 -5 0 -7 -10 -6 -22z"/>
 <path d="M512 44 c10 -10 20 -16 22 -13 3 3 -5 11 -17 18 -21 13 -21 12 -5 -5z"/>
 <path d="M75 40 c-3 -5 -1 -10 4 -10 6 0 11 5 11 10 0 6 -2 10 -4 10 -3 0 -8 -4 -11 -10z"/>
 </g>
<g id="layer2" fill="#979797" stroke="none">
 <path d="M459 986 c23 -25 24 -28 13 -93 -6 -38 -9 -175 -8 -313 1 -135 -1 -249 -5 -255 -3 -5 -12 -33 -18 -61 l-12 -51 -82 -27 c-45 -15 -102 -40 -127 -54 -25 -15 -49 -27 -55 -27 -19 -1 -55 -26 -50 -35 3 -5 -3 -14 -12 -20 -14 -8 -12 -9 12 -4 17 4 35 10 40 15 6 4 47 18 90 30 44 12 92 28 107 35 15 8 39 14 53 14 14 0 39 7 55 15 20 10 31 12 35 4 5 -7 13 -5 25 6 19 18 60 13 60 -7 0 -7 5 -6 15 2 11 9 19 8 37 -4 12 -9 36 -16 53 -16 17 0 49 -8 71 -19 21 -10 64 -24 94 -31 30 -7 73 -21 95 -31 22 -10 47 -18 55 -18 8 0 5 4 -8 10 -13 5 -21 13 -18 18 7 11 -19 33 -42 35 -9 1 -37 13 -63 28 -25 15 -81 40 -124 56 l-79 27 -17 58 c-16 52 -24 125 -20 184 0 12 10 31 21 41 11 10 27 41 35 68 17 59 42 107 77 154 14 19 31 59 38 88 15 64 34 85 72 80 38 -6 35 2 -14 35 -41 29 -57 26 -58 -11 0 -20 -29 -73 -61 -112 -16 -19 -29 -40 -29 -47 0 -6 -16 -33 -36 -59 -34 -44 -36 -50 -30 -98 4 -32 3 -46 -3 -37 -14 21 -22 169 -13 232 5 32 4 67 0 80 -15 41 -12 98 7 119 18 19 17 20 -11 20 -38 0 -53 -11 -45 -33 8 -22 -16 -303 -28 -325 -15 -26 -26 57 -35 268 l-4 85 -39 3 -38 3 24 -25z"/>
 <path d="M226 917 l-39 -33 35 4 c41 5 50 -5 72 -79 8 -30 27 -71 41 -90 28 -37 52 -88 81 -164 18 -50 18 -50 25 -20 12 53 10 118 -5 134 -8 9 -26 39 -41 66 -15 28 -35 59 -44 70 -17 21 -56 97 -65 128 -7 24 -15 22 -60 -16z"/>
 <path d="M210 235 c-30 -7 -62 -10 -70 -6 -8 4 -26 5 -40 0 -14 -4 -19 -7 -12 -8 7 -1 10 -6 7 -12 -4 -6 -13 -8 -21 -5 -7 3 -16 1 -19 -3 -2 -5 50 -11 118 -14 107 -4 130 -2 185 16 34 12 62 25 62 29 0 5 -22 8 -49 8 -27 0 -61 2 -77 5 -16 2 -54 -2 -84 -10z"/>
 <path d="M733 243 c-35 -2 -63 -7 -63 -12 0 -4 28 -16 63 -27 53 -18 80 -20 190 -16 70 2 125 7 122 11 -4 3 -13 6 -21 6 -7 0 -14 5 -13 10 0 14 -43 23 -63 13 -9 -4 -27 -4 -40 1 -34 12 -104 18 -175 14z"/>
 <path d="M525 156 c-25 -18 -26 -93 -1 -112 25 -18 56 -6 56 22 0 12 4 25 10 29 10 6 -19 66 -36 72 -5 2 -19 -3 -29 -11z"/>
 </g>

</svg>