<!DOCTYPE svg PUBLIC "-//W3C//DTD SVG 20010904//EN" "http://www.w3.org/TR/2001/REC-SVG-20010904/DTD/svg10.dtd">
<svg version="1.0" xmlns="http://www.w3.org/2000/svg" width="267px" height="266px" viewBox="0 0 2670 2660" preserveAspectRatio="xMidYMid meet">
<g id="layer1" fill="#8c8c8c" stroke="none">
 <path d="M1714 2508 c-212 -218 -326 -372 -379 -513 -15 -38 -40 -127 -56 -198 -36 -159 -55 -202 -115 -268 -70 -73 -113 -94 -275 -133 -80 -19 -175 -46 -211 -59 -134 -49 -297 -169 -515 -381 -193 -187 -219 -126 240 -584 l373 -372 44 0 c44 0 47 2 165 122 196 199 304 339 366 472 17 36 50 144 74 241 24 97 53 191 64 209 26 42 118 129 159 150 17 9 98 31 179 50 182 42 261 73 372 146 102 68 274 215 389 333 77 80 82 87 82 128 l0 43 -372 373 c-458 458 -396 433 -584 241z m-60 -736 c36 -12 98 -27 138 -33 103 -16 389 -5 501 18 48 11 87 18 87 16 0 -1 -48 -44 -107 -94 -192 -165 -269 -205 -504 -258 -184 -43 -243 -72 -345 -175 -105 -104 -131 -159 -178 -365 -23 -97 -48 -179 -70 -225 -45 -91 -138 -214 -259 -341 l-96 -100 -285 285 c-157 157 -285 287 -284 290 8 16 213 200 282 252 134 101 197 127 438 183 146 33 216 71 310 165 96 96 133 169 172 342 l29 125 52 -32 c29 -17 83 -41 119 -53z"/>
 </g>

</svg>