<!DOCTYPE svg PUBLIC "-//W3C//DTD SVG 20010904//EN" "http://www.w3.org/TR/2001/REC-SVG-20010904/DTD/svg10.dtd">
<svg version="1.0" xmlns="http://www.w3.org/2000/svg" width="251px" height="261px" viewBox="0 0 2510 2610" preserveAspectRatio="xMidYMid meet">
<g id="layer1" fill="#8c8c8c" stroke="none">
 <path d="M1160 2032 l0 -569 -39 -31 c-159 -128 -68 -381 137 -382 64 0 116 24 161 76 42 47 51 73 51 140 0 68 -25 119 -80 166 l-40 35 0 566 0 567 -95 0 -95 0 0 -568z"/>
 <path d="M335 2098 c-151 -167 -259 -383 -300 -599 -20 -108 -20 -360 0 -468 47 -246 164 -462 349 -646 246 -244 526 -360 871 -359 353 0 628 114 876 363 156 156 238 287 304 484 51 152 58 211 53 435 -5 214 -18 276 -89 449 -57 135 -233 383 -272 383 -16 0 -117 -102 -117 -117 0 -7 24 -39 54 -73 178 -205 273 -508 245 -782 -49 -478 -381 -846 -851 -942 -98 -20 -291 -21 -395 -1 -406 77 -718 367 -830 772 -25 89 -28 114 -28 268 0 154 3 179 28 268 45 165 128 320 230 433 26 29 47 56 47 61 0 10 -112 123 -122 123 -3 0 -27 -24 -53 -52z"/>
 <path d="M680 1738 c-60 -74 -123 -197 -147 -288 -24 -89 -24 -281 0 -370 41 -153 146 -312 268 -405 311 -235 740 -199 1001 84 79 86 122 157 161 268 30 84 32 95 32 238 -1 138 -3 156 -28 230 -43 122 -154 295 -191 295 -6 0 -38 -27 -70 -59 l-59 -59 41 -49 c46 -55 92 -145 113 -218 18 -64 18 -216 0 -280 -87 -309 -402 -487 -704 -398 -236 69 -400 290 -400 538 0 127 44 254 123 354 22 28 40 54 40 59 0 9 -113 122 -122 122 -4 0 -30 -28 -58 -62z"/>
 </g>

</svg>