<!DOCTYPE svg PUBLIC "-//W3C//DTD SVG 20010904//EN" "http://www.w3.org/TR/2001/REC-SVG-20010904/DTD/svg10.dtd">
<svg version="1.0" xmlns="http://www.w3.org/2000/svg" width="215px" height="384px" viewBox="0 0 2150 3840" preserveAspectRatio="xMidYMid meet">
<g id="layer1" fill="#8c8c8c" stroke="none">
 <path d="M735 3821 c-71 -20 -70 -13 -31 -176 30 -124 74 -411 64 -420 -3 -3 -52 3 -108 15 -136 28 -244 35 -298 21 -96 -26 -144 -108 -143 -243 1 -96 -15 -344 -23 -357 -4 -6 -25 -15 -48 -21 -22 -6 -59 -29 -82 -50 -37 -35 -41 -43 -40 -87 0 -42 12 -68 92 -207 89 -152 92 -160 82 -195 -14 -52 -12 -128 5 -191 91 -335 117 -392 231 -499 137 -128 395 -231 682 -272 125 -17 377 -7 472 21 259 74 439 255 505 505 42 161 45 462 5 623 -11 46 -49 147 -84 225 -122 271 -131 317 -130 677 0 192 5 318 17 419 9 80 14 148 9 153 -4 4 -41 12 -82 18 -63 9 -77 8 -86 -4 -28 -39 -59 -568 -44 -769 17 -243 42 -344 143 -562 69 -150 85 -204 97 -333 21 -224 -18 -447 -101 -571 -67 -100 -157 -161 -304 -203 -69 -19 -102 -23 -235 -22 -133 0 -172 4 -274 28 -229 53 -369 114 -463 200 -66 60 -91 107 -133 251 -56 190 -62 223 -49 262 27 83 18 118 -64 264 -42 75 -77 139 -77 143 0 3 19 3 43 0 30 -4 46 -2 54 7 6 8 21 64 34 124 21 104 27 167 32 382 1 51 7 97 12 102 15 15 186 -12 377 -60 87 -22 163 -37 168 -34 33 20 -16 450 -82 728 -34 145 -27 140 -143 108z"/>
 <path d="M1188 717 c-65 -25 -126 -66 -161 -110 -47 -57 -63 -91 -77 -163 -31 -157 65 -327 218 -384 47 -18 72 -21 142 -18 104 5 163 32 233 107 73 78 92 128 92 236 -1 79 -4 97 -30 148 -34 68 -107 140 -173 169 -59 27 -190 35 -244 15z"/>
 </g>

</svg>