<!DOCTYPE svg PUBLIC "-//W3C//DTD SVG 20010904//EN" "http://www.w3.org/TR/2001/REC-SVG-20010904/DTD/svg10.dtd">
<svg version="1.0" xmlns="http://www.w3.org/2000/svg" width="238px" height="236px" viewBox="0 0 2380 2360" preserveAspectRatio="xMidYMid meet">
<g id="layer1" fill="#fefefe" stroke="none">
 <path d="M84 2330 c-26 -10 -54 -48 -54 -71 0 -10 11 -31 25 -47 21 -25 25 -40 25 -98 0 -83 24 -132 87 -180 84 -64 222 -68 293 -7 35 29 37 39 11 53 -16 8 -30 5 -67 -15 -54 -29 -99 -32 -151 -10 -72 30 -105 80 -105 156 0 140 156 215 277 134 28 -20 40 -23 56 -15 27 15 24 24 -18 59 -64 52 -161 62 -252 25 -30 -13 -35 -12 -58 6 -28 22 -37 23 -69 10z"/>
 <path d="M1117 2326 c-181 -50 -227 -279 -79 -393 162 -123 413 -5 400 189 -11 149 -165 248 -321 204z m176 -73 c72 -43 98 -150 54 -227 -44 -78 -153 -108 -236 -64 -68 35 -86 66 -86 148 0 82 18 113 86 148 52 28 129 25 182 -5z"/>
 <path d="M1875 2318 c-3 -7 -4 -106 -3 -218 l3 -205 33 -3 c18 -2 39 2 47 8 7 6 43 78 81 161 37 82 71 146 75 142 4 -4 36 -71 70 -148 34 -77 66 -146 72 -153 6 -8 25 -12 46 -10 l36 3 0 215 0 215 -30 0 -30 0 -5 -152 -5 -152 -64 142 c-73 160 -78 169 -99 165 -8 -2 -47 -74 -88 -163 l-73 -160 -3 160 -3 160 -28 3 c-16 2 -29 -2 -32 -10z"/>
 <path d="M235 1445 c-5 -2 -27 -6 -48 -10 -38 -6 -99 -51 -118 -87 -14 -26 3 -46 47 -54 29 -5 38 -2 63 25 25 27 36 31 80 31 58 0 91 -23 91 -65 0 -46 -33 -66 -130 -78 -10 -2 -15 -14 -15 -42 l0 -40 50 -7 c57 -8 89 -37 79 -72 -9 -31 -33 -46 -76 -46 -36 0 -45 5 -71 43 -12 17 -18 18 -56 7 -50 -13 -59 -29 -35 -65 66 -100 274 -102 334 -2 31 50 26 100 -13 143 l-33 36 38 38 c34 34 38 43 38 88 0 44 -5 57 -32 88 -18 20 -46 43 -63 50 -32 13 -114 26 -130 19z"/>
 <path d="M1167 1424 c-4 -4 -7 -88 -7 -186 0 -98 -3 -178 -6 -178 -3 0 -24 14 -46 31 l-39 32 -30 -29 c-16 -15 -29 -33 -29 -40 0 -7 38 -40 85 -74 79 -57 88 -61 132 -58 l48 3 0 250 0 250 -50 3 c-28 2 -54 0 -58 -4z"/>
 <path d="M2167 1424 c-4 -4 -7 -27 -7 -50 l0 -43 -127 -3 -128 -3 -3 -37 c-3 -33 8 -53 116 -200 l119 -163 64 0 64 0 3 157 3 157 32 3 c30 3 32 5 32 43 0 38 -2 40 -32 43 -30 3 -32 5 -35 50 l-3 47 -45 3 c-25 2 -49 0 -53 -4z m-7 -276 c0 -53 -4 -88 -9 -82 -9 10 -102 140 -115 162 -5 9 9 12 58 12 l66 0 0 -92z"/>
 <path d="M1110 479 c-28 -11 -70 -48 -70 -61 0 -5 11 -13 24 -19 20 -9 29 -7 55 12 55 40 144 25 157 -26 11 -43 -18 -72 -95 -95 -92 -27 -131 -64 -131 -124 0 -77 61 -126 156 -126 50 0 112 24 121 47 3 8 -2 22 -11 31 -14 14 -19 15 -38 3 -62 -38 -141 -30 -159 17 -18 47 1 67 89 96 96 32 134 67 136 124 2 77 -62 132 -154 131 -30 0 -66 -5 -80 -10z"/>
 <path d="M61 463 c0 -10 44 -106 97 -213 93 -187 98 -195 126 -195 29 0 33 7 122 195 51 107 93 203 93 213 1 13 -7 17 -30 17 -27 0 -33 -6 -54 -55 l-25 -55 -109 0 -110 0 -25 55 c-22 49 -28 55 -55 55 -23 0 -31 -5 -30 -17z m297 -161 c-21 -52 -74 -162 -79 -162 -3 0 -15 24 -28 53 -12 28 -29 67 -37 85 l-14 32 81 0 c44 0 79 -4 77 -8z"/>
 <path d="M1965 468 c-3 -7 -4 -103 -3 -213 l3 -200 25 0 c24 0 25 2 30 83 l5 83 100 -85 c81 -69 106 -86 133 -86 20 0 32 5 32 13 0 7 -47 51 -105 98 l-106 84 111 105 c61 58 110 111 110 118 0 7 -13 12 -31 12 -26 0 -49 -17 -138 -102 l-106 -101 -5 99 c-5 93 -6 99 -28 102 -12 2 -24 -3 -27 -10z"/>
 </g>

</svg>