<!DOCTYPE svg PUBLIC "-//W3C//DTD SVG 20010904//EN" "http://www.w3.org/TR/2001/REC-SVG-20010904/DTD/svg10.dtd">
<svg version="1.0" xmlns="http://www.w3.org/2000/svg" width="205px" height="307px" viewBox="0 0 2050 3070" preserveAspectRatio="xMidYMid meet">
<g id="layer1" fill="#8c8c8c" stroke="none">
 <path d="M37 3052 c-16 -17 -17 -90 -17 -849 l0 -830 51 -48 c121 -113 335 -174 824 -235 138 -17 315 -44 395 -60 344 -69 560 -180 560 -288 0 -33 -71 -87 -159 -122 l-51 -20 22 53 c12 28 22 65 22 82 1 27 -4 31 -67 58 -38 16 -74 26 -80 24 -7 -3 -57 -115 -111 -250 l-100 -246 -101 98 c-126 123 -292 247 -411 307 l-91 47 19 86 c32 141 35 132 -56 154 -65 15 -81 16 -91 5 -17 -18 -75 -293 -75 -352 0 -159 176 -283 445 -311 59 -7 77 -13 112 -42 50 -41 139 -149 177 -214 40 -70 107 -88 154 -41 10 10 46 87 81 173 l63 155 87 22 c171 45 325 142 371 233 19 37 20 65 20 891 0 963 6 889 -81 983 -146 159 -446 255 -1012 325 -454 56 -657 109 -759 198 -29 26 -44 32 -80 32 -31 0 -50 -6 -61 -18z m271 -281 c50 -17 153 -43 227 -58 l135 -28 0 -92 c0 -51 -3 -93 -7 -93 -5 0 -46 7 -93 15 -98 17 -107 13 -112 -50 l-3 -39 75 -13 c41 -7 90 -16 108 -19 17 -2 32 -8 32 -13 0 -4 -43 0 -95 8 -59 9 -98 11 -104 5 -5 -5 -12 -26 -15 -47 -6 -33 -4 -38 18 -47 14 -5 64 -15 111 -22 l85 -12 0 -478 c0 -426 -2 -478 -16 -478 -35 0 -220 43 -301 71 -48 16 -104 40 -125 54 l-38 25 0 676 c0 537 3 675 13 670 6 -2 54 -18 105 -35z m782 -137 c386 -56 665 -156 737 -263 l23 -34 0 -653 0 -654 -62 34 c-110 60 -313 123 -518 160 -75 14 -385 56 -410 56 -6 0 -10 179 -10 479 l0 480 32 3 c29 3 33 7 40 43 10 45 -6 65 -49 65 -13 0 -23 4 -23 10 0 5 13 7 30 4 34 -7 39 0 43 61 2 38 1 40 -33 45 l-35 5 -3 94 -3 94 68 -7 c37 -4 115 -14 173 -22z"/>
 <path d="M1025 1706 c-84 -37 -114 -137 -69 -227 28 -55 114 -109 174 -109 34 1 101 41 120 72 24 39 27 126 6 166 -31 60 -113 112 -173 112 -15 -1 -41 -7 -58 -14z"/>
 </g>

</svg>