<!DOCTYPE svg PUBLIC "-//W3C//DTD SVG 20010904//EN" "http://www.w3.org/TR/2001/REC-SVG-20010904/DTD/svg10.dtd">
<svg version="1.0" xmlns="http://www.w3.org/2000/svg" width="251px" height="348px" viewBox="0 0 2510 3480" preserveAspectRatio="xMidYMid meet">
<g id="layer1" fill="#8c8c8c" stroke="none">
 <path d="M137 3348 c-15 -62 -34 -149 -42 -193 -39 -215 -67 -537 -47 -549 6 -3 82 12 170 34 156 39 353 75 376 67 7 -2 12 -36 13 -88 3 -190 12 -299 33 -394 31 -149 31 -148 90 -140 l50 7 -81 -143 -81 -143 7 -65 c12 -115 9 -154 -24 -256 -17 -54 -31 -105 -31 -112 0 -38 -47 -129 -91 -178 -61 -66 -136 -113 -255 -159 -49 -19 -90 -40 -92 -48 -1 -7 8 -44 20 -83 27 -83 30 -84 154 -36 119 46 200 98 284 181 86 86 118 140 154 260 13 47 36 125 50 174 27 91 33 185 17 243 -8 28 -1 45 85 195 98 172 108 202 79 258 -19 36 -58 64 -112 80 -40 12 -43 15 -52 64 -6 28 -13 132 -17 231 -7 203 -16 239 -77 292 -60 52 -163 56 -371 13 -55 -11 -101 -18 -104 -15 -8 8 36 292 64 410 38 164 38 166 -16 186 -25 10 -63 18 -86 18 l-40 1 -27 -112z"/>
 <path d="M2228 3444 c-26 -8 -50 -18 -53 -23 -3 -5 8 -65 25 -133 42 -173 83 -448 67 -448 -2 0 -46 9 -98 20 -128 27 -265 36 -315 20 -90 -29 -136 -113 -134 -242 2 -106 -16 -348 -26 -357 -5 -4 -30 -16 -57 -25 -92 -34 -134 -106 -104 -178 8 -19 51 -98 96 -177 79 -136 81 -143 71 -179 -15 -54 -11 -128 9 -202 10 -36 31 -110 46 -165 15 -55 43 -131 62 -170 44 -87 142 -186 241 -244 97 -56 252 -116 271 -104 17 11 64 155 53 164 -4 4 -32 14 -62 24 -84 27 -205 93 -258 140 -52 47 -93 115 -112 185 -7 25 -25 88 -40 140 -40 138 -40 137 -24 208 8 35 12 77 9 92 -3 15 -40 87 -81 159 -40 72 -74 134 -74 136 0 3 23 4 52 3 l52 -3 24 110 c22 105 30 187 35 407 2 54 6 100 10 104 11 12 224 -25 385 -67 85 -22 158 -37 163 -34 34 22 -28 539 -93 778 l-21 77 -36 -1 c-20 0 -57 -7 -83 -15z"/>
 <path d="M1210 1104 c-11 -13 -5 -46 36 -198 l50 -182 -136 27 c-123 25 -137 26 -152 12 -10 -9 -18 -21 -18 -26 0 -13 386 -674 408 -700 9 -10 25 -17 35 -15 43 6 42 28 -7 208 -26 94 -45 174 -43 177 3 2 64 -7 137 -22 136 -27 160 -25 160 13 0 16 -380 672 -408 705 -19 21 -45 22 -62 1z"/>
 </g>

</svg>