<!DOCTYPE svg PUBLIC "-//W3C//DTD SVG 20010904//EN" "http://www.w3.org/TR/2001/REC-SVG-20010904/DTD/svg10.dtd">
<svg version="1.0" xmlns="http://www.w3.org/2000/svg" width="251px" height="267px" viewBox="0 0 2510 2670" preserveAspectRatio="xMidYMid meet">
<g id="layer1" fill="#8c8c8c" stroke="none">
 <path d="M2097 2634 c-4 -4 -7 -58 -7 -120 0 -109 -1 -112 -25 -128 -87 -57 -87 -205 0 -262 l25 -16 0 -314 0 -314 -25 -16 c-40 -26 -65 -76 -65 -128 0 -55 18 -94 60 -129 l30 -26 0 -303 0 -303 -348 348 -349 349 5 47 c5 57 -12 95 -63 140 -35 31 -57 36 -124 32 -32 -3 -51 15 -387 350 -342 342 -354 355 -348 386 19 103 -87 210 -188 188 -28 -7 -37 -1 -114 76 l-84 83 -40 -39 c-22 -21 -40 -46 -40 -55 0 -8 34 -49 76 -90 69 -69 75 -77 69 -107 -19 -105 91 -214 192 -188 25 6 53 -20 380 -347 l353 -353 0 -62 c0 -58 3 -66 36 -102 41 -46 90 -66 144 -58 l37 5 354 -354 353 -353 -3 -50 c-3 -57 14 -97 58 -134 30 -25 30 -26 33 -144 l3 -118 65 0 65 0 5 108 5 108 70 -71 c38 -38 74 -70 80 -70 13 0 85 72 85 85 0 5 -35 44 -77 87 -77 77 -77 77 -74 127 3 57 -15 97 -59 134 l-30 26 0 311 0 311 34 29 c45 40 60 79 54 141 -4 42 -12 57 -47 93 l-41 42 0 310 0 310 28 21 c81 60 81 197 1 254 -28 20 -28 21 -31 137 l-3 117 -60 3 c-34 2 -64 0 -68 -4z"/>
 <path d="M1195 2413 c-11 -3 -35 -16 -53 -30 -111 -84 -67 -267 71 -290 52 -8 121 20 154 63 91 120 -24 293 -172 257z"/>
 <path d="M267 1486 c-51 -19 -76 -42 -99 -94 -25 -56 -17 -111 25 -158 56 -64 123 -81 193 -48 64 30 103 108 90 179 -10 52 -66 110 -121 124 -52 13 -41 13 -88 -3z"/>
 <path d="M229 547 c-48 -32 -82 -101 -74 -152 22 -148 201 -197 291 -79 24 31 29 47 29 95 0 65 -18 98 -75 137 -46 31 -124 31 -171 -1z"/>
 <path d="M1153 549 c-50 -32 -73 -77 -73 -142 0 -49 4 -61 31 -92 42 -47 78 -65 132 -65 49 0 96 27 131 73 16 21 21 43 21 87 0 66 -18 99 -75 138 -44 29 -122 30 -167 1z"/>
 </g>

</svg>