<!DOCTYPE svg PUBLIC "-//W3C//DTD SVG 20010904//EN" "http://www.w3.org/TR/2001/REC-SVG-20010904/DTD/svg10.dtd">
<svg version="1.0" xmlns="http://www.w3.org/2000/svg" width="512px" height="512px" viewBox="0 0 5120 5120" preserveAspectRatio="xMidYMid meet">
<g id="layer1" fill="#020201" stroke="none">
 <path d="M493 4474 c-9 -23 4 -223 22 -329 51 -316 184 -551 385 -680 162 -105 337 -180 720 -310 400 -136 437 -157 473 -270 29 -92 27 -103 -40 -206 -195 -301 -318 -706 -339 -1110 -11 -217 18 -393 91 -544 115 -238 326 -359 665 -380 283 -19 535 50 684 186 109 100 175 223 214 397 24 110 23 427 -1 575 -55 327 -171 650 -312 868 -44 69 -46 74 -40 123 10 71 40 155 67 184 37 39 121 76 382 166 410 142 593 221 764 333 98 63 168 132 229 225 110 169 175 416 177 673 l1 110 -2068 3 c-1890 2 -2068 1 -2074 -14z"/>
 </g>

</svg>